<svg xmlns="http://www.w3.org/2000/svg" viewBox="0 0 32 32">
  <rect width="32" height="32" rx="7" fill="#F07A4F"/>
  <path d="M0.983-9.835A10.117,10.117,0,0,0,11.089,0.273a9.834,9.834,0,0,0,5.191-1.476l3.943,4.395,2.963-3.179L19.5-3.279a10.044,10.044,0,0,0,2.435-6.556A10.117,10.117,0,0,0,11.089-19.949,10.117,10.117,0,0,0,.983-9.835Zm10.106-6.887a6.893,6.893,0,0,1,6.888,6.887,6.791,6.791,0,0,1-1.421,4.128s1.938,2.106,2.213,2.433-2.194,2.392-2.487,2.076-2.2-2.389-2.2-2.389a5.907,5.907,0,0,1-2.925.765A6.893,6.893,0,0,1,4.274-9.835,6.893,6.893,0,0,1,11.089-16.722Z" transform="translate(8.3 24.5)" fill="#fff"/>
</svg>
