<svg xmlns="http://www.w3.org/2000/svg" width="275" height="275" viewBox="0 0 275 275"><g transform="translate(-603 -1160)"><rect width="275" height="275" rx="25" transform="translate(603 1160)"/><path d="M6.156-61.56A63.346,63.346,0,0,0,69.426,1.71a61.581,61.581,0,0,0,32.49-9.234l24.672,27.5L141.465,6.471,117.477-20.52A62.862,62.862,0,0,0,132.7-61.56a63.346,63.346,0,0,0-63.27-63.27A63.346,63.346,0,0,0,6.156-61.56Zm63.27-43.092A43.131,43.131,0,0,1,112.518-61.56a42.485,42.485,0,0,1-8.892,25.821s12.123,13.178,13.851,15.219-13.73,14.967-15.561,13S87.723-23.256,87.723-23.256a36.951,36.951,0,0,1-18.3,4.788A43.131,43.131,0,0,1,26.334-61.56,43.131,43.131,0,0,1,69.426-104.652Z" transform="translate(666.69 1349.925)" fill="#f9f9f9"/><circle cx="24.5" cy="24.5" r="24.5" transform="translate(711 1263)" fill="#f9f9f9"/></g></svg>